<svg width="28" height="28" viewBox="0 0 28 28" fill="none" xmlns="http://www.w3.org/2000/svg">
<path d="M11.2 19.6V16.8H16.8V19.6C16.8 21.1464 15.5464 22.4 14 22.4C12.4536 22.4 11.2 21.1464 11.2 19.6Z" fill="#333333"/>
<path fill-rule="evenodd" clip-rule="evenodd" d="M0 14C0 6.26801 6.26801 0 14 0C21.732 0 28 6.26801 28 14C28 21.732 21.732 28 14 28C6.26801 28 0 21.732 0 14ZM9.33333 11.2H7.46667V9.33333H9.33333V11.2ZM20.5333 11.2H18.6667V9.33333H20.5333V11.2ZM7.46667 16.8H9.33333V19.6C9.33333 22.1773 11.4227 24.2667 14 24.2667C16.5773 24.2667 18.6667 22.1773 18.6667 19.6V16.8H20.5333V14.9333H7.46667V16.8Z" fill="#333333"/>
</svg>
