<svg width="30" height="29" viewBox="0 0 30 29" fill="none" xmlns="http://www.w3.org/2000/svg">
<path d="M29.7071 0.283153C30.0275 0.592829 30.0924 1.07201 29.8654 1.45102L22.1837 14.2771L15.2306 7.55576L28.499 0.13011C28.8911 -0.0893179 29.3868 -0.0265241 29.7071 0.283153Z" fill="#333333"/>
<path d="M13.4392 8.55828L9.49897 10.7634C9.2301 10.9139 9.04885 11.1766 9.00849 11.4744C8.96812 11.7722 9.07322 12.0712 9.2929 12.2836L17.2929 20.0169C17.5126 20.2293 17.8219 20.3308 18.1299 20.2918C18.438 20.2528 18.7098 20.0776 18.8654 19.8177L21.1466 16.0088L13.4392 8.55828Z" fill="#333333"/>
<path d="M1.98048 20.1861C2.7283 17.6387 5.13465 15.8809 7.87391 15.8809H8.00006C11.3138 15.8809 14.0001 18.4776 14.0001 21.6809V21.7831C14.0001 24.9299 11.3611 27.4809 8.1058 27.4809H7.94617C7.17454 27.4809 6.41262 27.3144 5.71593 26.9938C4.7029 26.5275 3.51087 26.6104 2.57729 27.212L1.55476 27.871C1.20621 28.0956 0.749768 28.0864 0.411195 27.848C0.072622 27.6095 -0.0763167 27.1923 0.038045 26.8028L1.98048 20.1861Z" fill="#333333"/>
</svg>
