<svg width="31" height="31" viewBox="0 0 31 31" fill="none" xmlns="http://www.w3.org/2000/svg">
<path fill-rule="evenodd" clip-rule="evenodd" d="M9.29995 0C6.44648 0 4.13328 2.3132 4.13328 5.16667V13.0052L3.22519 13.9133C1.20748 15.931 1.20749 19.2024 3.2252 21.2201L9.77978 27.7746C11.7975 29.7924 15.0688 29.7924 17.0866 27.7746L25.7078 19.1534C27.7255 17.1357 27.7255 13.8643 25.7078 11.8466L19.1532 5.29204C17.8407 3.97947 15.9976 3.52076 14.3142 3.9159C13.755 1.66676 11.7221 0 9.29995 0ZM12.4 7.66124V14.4667H14.4666V6.02191C15.5571 5.63738 16.8197 5.88121 17.6919 6.75339L24.2464 13.308C25.4571 14.5186 25.4571 16.4814 24.2465 17.692L23.3385 18.6H3.95511C3.57052 17.5095 3.81434 16.2469 4.68655 15.3746L12.4 7.66124ZM12.3814 4.82522C12.2114 3.2738 10.8966 2.06667 9.29995 2.06667C7.58787 2.06667 6.19995 3.45458 6.19995 5.16667V10.9385L11.8464 5.29204C12.0164 5.12212 12.1952 4.96652 12.3814 4.82522Z" fill="#333333"/>
<path d="M26.1319 20.1231L29.3029 23.294C31.1928 25.1839 31.0203 28.297 28.9333 29.9667C27.2955 31.2769 24.9683 31.2769 23.3305 29.9667C21.2435 28.297 21.0711 25.1839 22.961 23.294L26.1319 20.1231Z" fill="#333333"/>
</svg>
