<svg width="30" height="29" viewBox="0 0 30 29" fill="none" xmlns="http://www.w3.org/2000/svg">
<path fill-rule="evenodd" clip-rule="evenodd" d="M0 14.5C0 6.49187 6.71573 0 15 0C23.2843 0 30 6.49187 30 14.5C30 22.5081 23.2843 29 15 29C6.71573 29 0 22.5081 0 14.5ZM15 6.76667C15.3877 6.76667 15.7405 6.98331 15.9053 7.32259L17.8417 11.3107L22.151 11.9467C22.5215 12.0014 22.8293 12.2518 22.9483 12.5954C23.0673 12.939 22.9775 13.318 22.7158 13.5774L19.5682 16.6957L20.3134 21.111C20.3751 21.4764 20.2155 21.8437 19.9024 22.0569C19.5894 22.2701 19.1778 22.2918 18.8427 22.1127L15 20.0592L11.1574 22.1127C10.8222 22.2918 10.4107 22.2701 10.0976 22.0569C9.78456 21.8437 9.62495 21.4764 9.68662 21.111L10.4318 16.6957L7.28428 13.5774C7.02251 13.318 6.93276 12.939 7.05177 12.5954C7.17077 12.2518 7.47855 12.0014 7.84909 11.9467L12.1583 11.3107L14.0948 7.32259C14.2595 6.98331 14.6123 6.76667 15 6.76667Z" fill="#333333"/>
</svg>
